<mxfile host="drawio-plugin" modified="2024-06-25T09:42:15.048Z" agent="Mozilla/5.0 (X11; Linux x86_64) AppleWebKit/537.36 (KHTML, like Gecko) Chrome/122.0.0.0 Safari/537.36" etag="dlVY-acp1eLOky3YVhJB" version="22.1.22" type="embed">
  <diagram id="23iRSUPoRavnBvh4doch" name="Page-1">
    <mxGraphModel dx="932" dy="528" grid="1" gridSize="10" guides="1" tooltips="1" connect="1" arrows="1" fold="1" page="1" pageScale="1" pageWidth="827" pageHeight="1169" math="0" shadow="0">
      <root>
        <mxCell id="0" />
        <mxCell id="1" parent="0" />
        <mxCell id="2" value="User" style="shape=umlActor;verticalLabelPosition=bottom;verticalAlign=top;html=1;outlineConnect=0;" vertex="1" parent="1">
          <mxGeometry x="87" y="287" width="30" height="60" as="geometry" />
        </mxCell>
        <mxCell id="22" style="edgeStyle=orthogonalEdgeStyle;rounded=0;orthogonalLoop=1;jettySize=auto;html=1;exitX=0;exitY=0;exitDx=140;exitDy=52;exitPerimeter=0;entryX=0;entryY=0;entryDx=0;entryDy=52;entryPerimeter=0;" edge="1" parent="1" source="3" target="10">
          <mxGeometry relative="1" as="geometry">
            <mxPoint x="810.0000000000002" y="320" as="targetPoint" />
          </mxGeometry>
        </mxCell>
        <mxCell id="23" value="analyse anfordern" style="edgeLabel;html=1;align=center;verticalAlign=middle;resizable=0;points=[];" vertex="1" connectable="0" parent="22">
          <mxGeometry x="-0.0444" y="2" relative="1" as="geometry">
            <mxPoint x="3" y="-6" as="offset" />
          </mxGeometry>
        </mxCell>
        <mxCell id="3" value="BFF Service" style="shape=folder;fontStyle=1;spacingTop=10;tabWidth=40;tabHeight=14;tabPosition=left;html=1;whiteSpace=wrap;" vertex="1" parent="1">
          <mxGeometry x="379" y="266" width="140" height="90" as="geometry" />
        </mxCell>
        <mxCell id="4" value="Frontend" style="shape=folder;fontStyle=1;spacingTop=10;tabWidth=40;tabHeight=14;tabPosition=left;html=1;whiteSpace=wrap;" vertex="1" parent="1">
          <mxGeometry x="180" y="265" width="140" height="90" as="geometry" />
        </mxCell>
        <mxCell id="8" value="Service Registry&lt;br&gt;(Eureka)" style="shape=folder;fontStyle=1;spacingTop=10;tabWidth=40;tabHeight=14;tabPosition=left;html=1;whiteSpace=wrap;" vertex="1" parent="1">
          <mxGeometry x="600" y="170" width="140" height="90" as="geometry" />
        </mxCell>
        <mxCell id="9" value="Kafka Cluster" style="shape=folder;fontStyle=1;spacingTop=10;tabWidth=40;tabHeight=14;tabPosition=left;html=1;whiteSpace=wrap;" vertex="1" parent="1">
          <mxGeometry x="600" y="340" width="140" height="90" as="geometry" />
        </mxCell>
        <mxCell id="14" value="" style="group" vertex="1" connectable="0" parent="1">
          <mxGeometry x="827" y="247" width="160" height="110" as="geometry" />
        </mxCell>
        <mxCell id="12" value="" style="shape=folder;fontStyle=1;spacingTop=10;tabWidth=40;tabHeight=14;tabPosition=left;html=1;whiteSpace=wrap;" vertex="1" parent="14">
          <mxGeometry x="20" width="140" height="90" as="geometry" />
        </mxCell>
        <mxCell id="11" value="" style="shape=folder;fontStyle=1;spacingTop=10;tabWidth=40;tabHeight=14;tabPosition=left;html=1;whiteSpace=wrap;" vertex="1" parent="14">
          <mxGeometry x="10" y="10" width="140" height="90" as="geometry" />
        </mxCell>
        <mxCell id="10" value="Analyse Services" style="shape=folder;fontStyle=1;spacingTop=10;tabWidth=40;tabHeight=14;tabPosition=left;html=1;whiteSpace=wrap;" vertex="1" parent="14">
          <mxGeometry y="20" width="140" height="90" as="geometry" />
        </mxCell>
        <mxCell id="15" style="rounded=0;orthogonalLoop=1;jettySize=auto;html=1;startArrow=classic;startFill=1;entryX=0;entryY=0;entryDx=0;entryDy=52;entryPerimeter=0;exitX=0;exitY=0;exitDx=140;exitDy=33;exitPerimeter=0;" edge="1" parent="1" source="3" target="8">
          <mxGeometry relative="1" as="geometry">
            <mxPoint x="510" y="280" as="sourcePoint" />
            <mxPoint x="600" y="216" as="targetPoint" />
          </mxGeometry>
        </mxCell>
        <mxCell id="16" style="rounded=0;orthogonalLoop=1;jettySize=auto;html=1;startArrow=classic;startFill=1;entryX=1;entryY=0.589;entryDx=0;entryDy=0;entryPerimeter=0;exitX=0;exitY=0;exitDx=0;exitDy=33;exitPerimeter=0;" edge="1" parent="1" source="10" target="8">
          <mxGeometry relative="1" as="geometry">
            <mxPoint x="820" y="300" as="sourcePoint" />
            <mxPoint x="740" y="210" as="targetPoint" />
          </mxGeometry>
        </mxCell>
        <mxCell id="18" style="rounded=0;orthogonalLoop=1;jettySize=auto;html=1;entryX=0;entryY=0;entryDx=140;entryDy=52;entryPerimeter=0;exitX=0;exitY=0;exitDx=0;exitDy=71;exitPerimeter=0;" edge="1" parent="1" source="10" target="9">
          <mxGeometry relative="1" as="geometry" />
        </mxCell>
        <mxCell id="24" value="Ergebnisse" style="edgeLabel;html=1;align=center;verticalAlign=middle;resizable=0;points=[];" vertex="1" connectable="0" parent="18">
          <mxGeometry x="0.0823" y="-2" relative="1" as="geometry">
            <mxPoint x="9" y="3" as="offset" />
          </mxGeometry>
        </mxCell>
        <mxCell id="19" style="rounded=0;orthogonalLoop=1;jettySize=auto;html=1;entryX=0;entryY=0;entryDx=140;entryDy=71;entryPerimeter=0;exitX=0;exitY=0;exitDx=0;exitDy=52;exitPerimeter=0;" edge="1" parent="1" source="9" target="3">
          <mxGeometry relative="1" as="geometry" />
        </mxCell>
        <mxCell id="20" style="edgeStyle=orthogonalEdgeStyle;rounded=0;orthogonalLoop=1;jettySize=auto;html=1;entryX=0;entryY=0;entryDx=0;entryDy=52;entryPerimeter=0;exitX=0;exitY=0;exitDx=140;exitDy=52;exitPerimeter=0;startArrow=classic;startFill=1;" edge="1" parent="1" source="4" target="3">
          <mxGeometry relative="1" as="geometry" />
        </mxCell>
        <mxCell id="21" style="edgeStyle=orthogonalEdgeStyle;rounded=0;orthogonalLoop=1;jettySize=auto;html=1;endArrow=none;endFill=0;" edge="1" parent="1">
          <mxGeometry relative="1" as="geometry">
            <mxPoint x="120" y="317.0344827586207" as="sourcePoint" />
            <mxPoint x="173" y="317" as="targetPoint" />
          </mxGeometry>
        </mxCell>
      </root>
    </mxGraphModel>
  </diagram>
</mxfile>
